<svg width="50" height="44" viewBox="0 0 50 44" fill="none" xmlns="http://www.w3.org/2000/svg">
<path d="M25 17.2148C29.6848 17.2148 33.4961 13.4035 33.4961 8.71875C33.4961 4.03398 29.6848 0.222656 25 0.222656C20.3152 0.222656 16.5039 4.03398 16.5039 8.71875C16.5039 13.4035 20.3152 17.2148 25 17.2148ZM25 3.15234C28.0693 3.15234 30.5664 5.64942 30.5664 8.71875C30.5664 11.7881 28.0693 14.2852 25 14.2852C21.9307 14.2852 19.4336 11.7881 19.4336 8.71875C19.4336 5.64942 21.9307 3.15234 25 3.15234Z" fill="white"/>
<path d="M42.1875 17.2148C45.1491 17.2148 47.5586 14.8054 47.5586 11.8438C47.5586 8.88213 45.1491 6.47266 42.1875 6.47266C39.2259 6.47266 36.8164 8.88213 36.8164 11.8438C36.8164 14.8054 39.2259 17.2148 42.1875 17.2148ZM42.1875 9.40235C43.5337 9.40235 44.6289 10.4976 44.6289 11.8438C44.6289 13.1899 43.5337 14.2852 42.1875 14.2852C40.8413 14.2852 39.7461 13.1899 39.7461 11.8438C39.7461 10.4976 40.8413 9.40235 42.1875 9.40235Z" fill="white"/>
<path d="M43.3691 20.5352H41.1035C38.4337 20.5352 36.129 22.1125 35.0788 24.3781C32.9166 22.0178 29.8108 20.5352 26.3651 20.5352H23.635C20.1893 20.5352 17.0835 22.0178 14.9213 24.3781C13.871 22.1125 11.5663 20.5352 8.89648 20.5352H6.63086C2.97461 20.5352 0 23.4918 0 27.126V37.791C0 39.3688 1.28848 40.6523 2.87227 40.6523H11.83C11.9802 42.4004 13.4501 43.7773 15.2365 43.7773H34.7636C36.5499 43.7773 38.0198 42.4004 38.1701 40.6523H47.0255C48.6657 40.6523 50.0001 39.3232 50.0001 37.6895V27.126C50 23.4918 47.0254 20.5352 43.3691 20.5352ZM2.92969 27.126C2.92969 25.1072 4.59004 23.4648 6.63086 23.4648H8.89648C10.9373 23.4648 12.5977 25.1072 12.5977 27.126V28.129C11.6126 30.6938 11.8164 32.231 11.8164 37.7227H2.92969V27.126ZM35.2539 40.3573C35.2539 40.6277 35.034 40.8477 34.7636 40.8477H15.2364C14.966 40.8477 14.7461 40.6276 14.7461 40.3573V32.3537C14.7461 27.4523 18.7336 23.4648 23.6349 23.4648H26.365C31.2664 23.4648 35.2539 27.4523 35.2539 32.3536V40.3573ZM47.0703 37.6895C47.0703 37.7399 47.6164 37.7227 38.1836 37.7227C38.1836 32.1903 38.3858 30.6896 37.4023 28.129V27.126C37.4023 25.1072 39.0627 23.4648 41.1035 23.4648H43.3691C45.41 23.4648 47.0703 25.1072 47.0703 27.126V37.6895Z" fill="white"/>
<path d="M7.8125 17.2148C10.7741 17.2148 13.1836 14.8054 13.1836 11.8438C13.1836 8.88213 10.7741 6.47266 7.8125 6.47266C4.85088 6.47266 2.44141 8.88213 2.44141 11.8438C2.44141 14.8054 4.85088 17.2148 7.8125 17.2148ZM7.8125 9.40235C9.15869 9.40235 10.2539 10.4976 10.2539 11.8438C10.2539 13.1899 9.15869 14.2852 7.8125 14.2852C6.46631 14.2852 5.37109 13.1899 5.37109 11.8438C5.37109 10.4976 6.46631 9.40235 7.8125 9.40235Z" fill="white"/>
</svg>
